<mxfile host="app.diagrams.net" modified="2024-06-10T15:05:30.358Z" agent="Mozilla/5.0 (X11; Linux x86_64) AppleWebKit/537.36 (KHTML, like Gecko) Chrome/125.0.0.0 Safari/537.36" etag="yK5nb3pd0gnxH6lUVpZU" version="24.5.2" type="device">
  <diagram name="Page-1" id="F2iR4fibEvK_MZOJZ2I4">
    <mxGraphModel dx="3463" dy="1473" grid="1" gridSize="10" guides="1" tooltips="1" connect="1" arrows="1" fold="1" page="1" pageScale="1" pageWidth="827" pageHeight="1169" math="0" shadow="0">
      <root>
        <mxCell id="0" />
        <mxCell id="1" parent="0" />
        <mxCell id="lvOvl7uf6GbegHflrdA7-40" style="edgeStyle=orthogonalEdgeStyle;rounded=0;orthogonalLoop=1;jettySize=auto;html=1;exitX=0.5;exitY=0;exitDx=0;exitDy=0;" edge="1" parent="1" source="lvOvl7uf6GbegHflrdA7-16" target="lvOvl7uf6GbegHflrdA7-39">
          <mxGeometry relative="1" as="geometry">
            <Array as="points">
              <mxPoint x="525" y="570" />
            </Array>
          </mxGeometry>
        </mxCell>
        <mxCell id="lvOvl7uf6GbegHflrdA7-41" style="edgeStyle=orthogonalEdgeStyle;rounded=0;orthogonalLoop=1;jettySize=auto;html=1;exitX=0.5;exitY=0;exitDx=0;exitDy=0;" edge="1" parent="1" source="lvOvl7uf6GbegHflrdA7-16" target="lvOvl7uf6GbegHflrdA7-38">
          <mxGeometry relative="1" as="geometry">
            <Array as="points">
              <mxPoint x="525" y="570" />
            </Array>
          </mxGeometry>
        </mxCell>
        <mxCell id="lvOvl7uf6GbegHflrdA7-16" value="search system" style="swimlane;startSize=0;labelBackgroundColor=default;dashed=1;" vertex="1" parent="1">
          <mxGeometry x="370" y="670" width="310" height="150" as="geometry" />
        </mxCell>
        <mxCell id="lvOvl7uf6GbegHflrdA7-25" value="website 1" style="shape=note;whiteSpace=wrap;html=1;backgroundOutline=1;darkOpacity=0.05;" vertex="1" parent="1">
          <mxGeometry x="395" y="910" width="80" height="100" as="geometry" />
        </mxCell>
        <mxCell id="lvOvl7uf6GbegHflrdA7-26" value="website 2" style="shape=note;whiteSpace=wrap;html=1;backgroundOutline=1;darkOpacity=0.05;" vertex="1" parent="1">
          <mxGeometry x="484" y="910" width="80" height="100" as="geometry" />
        </mxCell>
        <mxCell id="lvOvl7uf6GbegHflrdA7-27" value="website 3" style="shape=note;whiteSpace=wrap;html=1;backgroundOutline=1;darkOpacity=0.05;" vertex="1" parent="1">
          <mxGeometry x="575" y="910" width="80" height="100" as="geometry" />
        </mxCell>
        <mxCell id="lvOvl7uf6GbegHflrdA7-28" style="edgeStyle=orthogonalEdgeStyle;rounded=0;orthogonalLoop=1;jettySize=auto;html=1;exitX=0.5;exitY=1;exitDx=0;exitDy=0;" edge="1" parent="1" source="lvOvl7uf6GbegHflrdA7-18" target="lvOvl7uf6GbegHflrdA7-25">
          <mxGeometry relative="1" as="geometry" />
        </mxCell>
        <mxCell id="lvOvl7uf6GbegHflrdA7-29" style="edgeStyle=orthogonalEdgeStyle;rounded=0;orthogonalLoop=1;jettySize=auto;html=1;exitX=0.5;exitY=1;exitDx=0;exitDy=0;" edge="1" parent="1" source="lvOvl7uf6GbegHflrdA7-19" target="lvOvl7uf6GbegHflrdA7-26">
          <mxGeometry relative="1" as="geometry" />
        </mxCell>
        <mxCell id="lvOvl7uf6GbegHflrdA7-30" style="edgeStyle=orthogonalEdgeStyle;rounded=0;orthogonalLoop=1;jettySize=auto;html=1;exitX=0.5;exitY=1;exitDx=0;exitDy=0;" edge="1" parent="1" source="lvOvl7uf6GbegHflrdA7-20" target="lvOvl7uf6GbegHflrdA7-27">
          <mxGeometry relative="1" as="geometry" />
        </mxCell>
        <mxCell id="lvOvl7uf6GbegHflrdA7-31" value="python app" style="swimlane;startSize=0;labelBackgroundColor=default;dashed=1;" vertex="1" parent="1">
          <mxGeometry x="160" y="640" width="550" height="210" as="geometry" />
        </mxCell>
        <mxCell id="lvOvl7uf6GbegHflrdA7-36" style="edgeStyle=orthogonalEdgeStyle;rounded=0;orthogonalLoop=1;jettySize=auto;html=1;exitX=1;exitY=0.5;exitDx=0;exitDy=0;" edge="1" parent="1" source="lvOvl7uf6GbegHflrdA7-33" target="lvOvl7uf6GbegHflrdA7-16">
          <mxGeometry relative="1" as="geometry" />
        </mxCell>
        <mxCell id="lvOvl7uf6GbegHflrdA7-45" style="edgeStyle=orthogonalEdgeStyle;rounded=0;orthogonalLoop=1;jettySize=auto;html=1;" edge="1" parent="1" source="lvOvl7uf6GbegHflrdA7-37" target="lvOvl7uf6GbegHflrdA7-33">
          <mxGeometry relative="1" as="geometry" />
        </mxCell>
        <mxCell id="lvOvl7uf6GbegHflrdA7-37" value="" style="shape=umlActor;verticalLabelPosition=bottom;verticalAlign=top;html=1;outlineConnect=0;" vertex="1" parent="1">
          <mxGeometry x="70" y="715" width="30" height="60" as="geometry" />
        </mxCell>
        <mxCell id="lvOvl7uf6GbegHflrdA7-43" value="server" style="swimlane;startSize=0;dashed=1;labelBackgroundColor=default;" vertex="1" parent="1">
          <mxGeometry x="130" y="490" width="610" height="390" as="geometry" />
        </mxCell>
        <mxCell id="lvOvl7uf6GbegHflrdA7-33" value="flask server" style="rounded=1;whiteSpace=wrap;html=1;" vertex="1" parent="lvOvl7uf6GbegHflrdA7-43">
          <mxGeometry x="60" y="225" width="120" height="60" as="geometry" />
        </mxCell>
        <mxCell id="lvOvl7uf6GbegHflrdA7-38" value="&lt;div&gt;no sql&lt;/div&gt;event database" style="shape=cylinder3;whiteSpace=wrap;html=1;boundedLbl=1;backgroundOutline=1;size=15;" vertex="1" parent="lvOvl7uf6GbegHflrdA7-43">
          <mxGeometry x="512.5" y="30" width="67.5" height="90" as="geometry" />
        </mxCell>
        <mxCell id="lvOvl7uf6GbegHflrdA7-39" value="general purpose sql database" style="shape=cylinder3;whiteSpace=wrap;html=1;boundedLbl=1;backgroundOutline=1;size=15;" vertex="1" parent="lvOvl7uf6GbegHflrdA7-43">
          <mxGeometry x="86.25" y="30" width="67.5" height="90" as="geometry" />
        </mxCell>
        <mxCell id="lvOvl7uf6GbegHflrdA7-42" style="edgeStyle=orthogonalEdgeStyle;rounded=0;orthogonalLoop=1;jettySize=auto;html=1;exitX=0.5;exitY=0;exitDx=0;exitDy=0;" edge="1" parent="lvOvl7uf6GbegHflrdA7-43" source="lvOvl7uf6GbegHflrdA7-33" target="lvOvl7uf6GbegHflrdA7-39">
          <mxGeometry relative="1" as="geometry" />
        </mxCell>
        <mxCell id="lvOvl7uf6GbegHflrdA7-18" value="source provider 1" style="rounded=1;whiteSpace=wrap;html=1;" vertex="1" parent="lvOvl7uf6GbegHflrdA7-43">
          <mxGeometry x="270" y="260" width="70" height="40" as="geometry" />
        </mxCell>
        <mxCell id="lvOvl7uf6GbegHflrdA7-19" value="source provider 2" style="rounded=1;whiteSpace=wrap;html=1;" vertex="1" parent="lvOvl7uf6GbegHflrdA7-43">
          <mxGeometry x="359" y="260" width="70" height="40" as="geometry" />
        </mxCell>
        <mxCell id="lvOvl7uf6GbegHflrdA7-20" value="source provider 3" style="rounded=1;whiteSpace=wrap;html=1;" vertex="1" parent="lvOvl7uf6GbegHflrdA7-43">
          <mxGeometry x="450" y="260" width="70" height="40" as="geometry" />
        </mxCell>
        <mxCell id="lvOvl7uf6GbegHflrdA7-22" style="edgeStyle=orthogonalEdgeStyle;rounded=0;orthogonalLoop=1;jettySize=auto;html=1;exitX=0.5;exitY=1;exitDx=0;exitDy=0;entryX=0.5;entryY=0;entryDx=0;entryDy=0;" edge="1" parent="lvOvl7uf6GbegHflrdA7-43" source="lvOvl7uf6GbegHflrdA7-21" target="lvOvl7uf6GbegHflrdA7-19">
          <mxGeometry relative="1" as="geometry" />
        </mxCell>
        <mxCell id="lvOvl7uf6GbegHflrdA7-23" style="edgeStyle=orthogonalEdgeStyle;rounded=0;orthogonalLoop=1;jettySize=auto;html=1;exitX=0;exitY=0.5;exitDx=0;exitDy=0;" edge="1" parent="lvOvl7uf6GbegHflrdA7-43" source="lvOvl7uf6GbegHflrdA7-21" target="lvOvl7uf6GbegHflrdA7-18">
          <mxGeometry relative="1" as="geometry" />
        </mxCell>
        <mxCell id="lvOvl7uf6GbegHflrdA7-24" style="edgeStyle=orthogonalEdgeStyle;rounded=0;orthogonalLoop=1;jettySize=auto;html=1;exitX=1;exitY=0.5;exitDx=0;exitDy=0;" edge="1" parent="lvOvl7uf6GbegHflrdA7-43" source="lvOvl7uf6GbegHflrdA7-21" target="lvOvl7uf6GbegHflrdA7-20">
          <mxGeometry relative="1" as="geometry" />
        </mxCell>
        <mxCell id="lvOvl7uf6GbegHflrdA7-21" value="manager" style="rounded=1;whiteSpace=wrap;html=1;" vertex="1" parent="lvOvl7uf6GbegHflrdA7-43">
          <mxGeometry x="360" y="200" width="70" height="40" as="geometry" />
        </mxCell>
      </root>
    </mxGraphModel>
  </diagram>
</mxfile>
